<svg xmlns="http://www.w3.org/2000/svg" width="752" height="250" viewBox="0 0 752 250"><path fill="#ffb606" d="M337.8 10.8c3.2-3.4 6.1-7.3 10.4-9.3 5.6 0 11.3.7 16.9.6 7.5 0 11.6 11 6 15.9-3.5 2.9-8.5 3.5-12.9 2.9-2.3-1.9-3.2-5-4.5-7.6 1.9-3.1 4.4-5.6 7.8-7 2.5 2.8 3.5 6.8 1.8 10.3l-3.8-2.9 2.7-1.3c-.5-.6-1.1-1.2-1.6-1.9-1.4 1-2.7 2.1-4 3.1 1.1 2.6 3.3 4.9 6.2 5.2 2.9-1 6-3.5 5.6-6.8-.3-4.6-5.2-7.2-9.3-7.7-3.9 1.1-7.9 3.6-9.1 7.7-.9 2.6-2.4 4.9-3.9 7.1.8 4 2.5 7.9 1.8 12.1l-3.5 30.7c-.6 4.4.3 8.8-.1 13.1-.5 7-1 14.1-2.1 21-.6 3 0 6 .4 9 1.3 8.7 2.2 17.5 4.2 26.1 6.8-2.7 12.1-8.4 19.4-10 3.1-.7 6.6-1.4 9.5.3 6.9 3.4 13 8.2 18.4 13.6 3.7 3.9 3.9 9.8 3.3 14.9-2.5 22.3-4.8 44.7-7.2 67-.7 5.3-.4 10.7-.5 16 5.8 4.1 11.7 7.9 17.5 11.9 6.8-1.9 13.7-3.6 19.9-7 4.6-2.2 5.1-7.9 7.5-11.8-2.1-2.9-4.1-5.9-6.3-8.8.1-.5.3-1.5.5-2-3.5-2.9-6.5-6.3-10.5-8.7-1-.7-2.4-.2-3.4.1-3.6 1.4-6.7 3.7-9.9 5.8.2 6.3-.2 12.9 2.4 18.8 4.4.6 8.8 1.3 13.2 1.6 1.1-2.4 2.3-4.7 3.7-6.9-1.3-3.4-2.1-7.1-4.6-9.8-2-.3-4-.2-6-.2-1.2 2.1-2.3 4.1-3.4 6.2l1.2 3.5c1.6.4 3.3 1.6 4.9.4 1.9-1 1.3-3.4 1.7-5.2-.5-.4-1.5-1.3-2-1.8-1.1 1.3-2.2 2.7-3.7 3.5.4-3.8 3.7-5.2 7-5.6.8 2.2 1.8 4.4 2 6.8-.9 2-2.3 3.8-3.6 5.6-2.7 0-5.5.2-8.2-.3-1.8-2.7-2.3-6.1-2.6-9.3-.3-1.4 1.1-2.3 1.9-3.2 3.1-2.6 6.9-4.4 10.4-6.4 3.2 5 6.4 10.1 9.7 15.1-1.8 4.2-4.2 8.1-6.8 11.9-5.1-.8-10.3-1.5-15-3.5-1.9-.9-4.1-2-4.9-4.1-2.3-5.7-3.3-11.8-4.1-17.8l19.4-12.3c7.1 7.2 14.5 14.3 19.9 22.9 2.6 3.5.8 7.8-.6 11.3-1.4 3.5-4 7.2-8 7.9-6 1.3-11.4 4.3-17.1 6.3-2.9 1.1-5.7-.7-8.3-1.7-8.4-4-16.5-8.7-24.3-13.8-4.5-3.8-2.2-10.1-2-15.1.4-7.9 3.5-15.6 2.4-23.6-.7-5.6-.8-11.3-1.6-16.9-.3-3.1-2.3-5.8-2.7-8.8 3-7.4 4.3-15.4 3.9-23.4-1.6-6.4-5.2-13.2-12.1-14.8-8.2 3.6-14.2 10.5-20.1 16.9-.6 10.4-.6 20.8-2.3 31.1 1.2 3.8 2.2 7.6 1.6 11.6 3.6 6 10.3 9.6 17.2 9.5l-.4 2.9c-4.8 1.3-9.8.4-14.5-.6-7.2-1.8-13.9-5-20.1-8.9-3.1-2.2-7.1-2.4-10.7-3.5l-.1-4.1c2.6-1.3 5.3-2.5 8.1-3.6 2.3-7.6 2.9-15.6 2.9-23.5.1-8.1-2.6-15.9-2.9-23.9.5-7.2 1.8-14.4 4-21.3-2-5.7-2.2-11.9-1.9-17.9 1-13.7 3.1-27.3 3.4-41.1.7-5.2 2.5-10.3 2.8-15.6-.8-7.1-1.6-14.2-1-21.4.9-2.4 3-4.2 4.6-6.2zM129.9 13.9c7.1-1.5 12.5-6.8 19.1-9.4 2.1.3 3.8 1.7 5.6 2.8 5.9 4 12 8.1 15.9 14.2 3.2 5 2.5 12.7-2.6 16.3-2.9 1.9-6.5 3.1-9.9 2-3.8-1.1-7.8-2.4-10.6-5.3-2.5-2.3-3-6.2-2-9.3 2.1-3.4 5.3-5.9 8.1-8.6 4.8.8 9.4 3.9 11.5 8.3.1 3.4-1.6 6.8-4.1 9-2.9.4-6.6-.3-8-3.2-1.2-2.6.9-5.1 2-7.3 1.2.3 2.3.7 3.5 1.1 1.7 1.7.8 4.1-.3 5.9l-1.8-3.9-1.6 3.5c1.1.3 2.3.6 3.4.8 1.6-1.3 2.5-3.3 3.6-5.1-2.3-1.9-4.7-3.7-7.2-5.4-2.4 1.7-5.2 3.4-6 6.4.7 3.4 2.6 7 5.8 8.6 4 1.1 8.7.5 11.8-2.4 2.7-2.4 2.1-6.6 1.4-9.8-2.4-5.9-8.1-9.5-13.4-12.5-3.3-2.2-7.4-1.4-11.1-1.5-1.9 5-2.3 10.4-2.6 15.7-.6 3.6 2.4 6.4 3 9.8 0 4.8-.7 9.7.4 14.4 1.3 5.2-.4 10.5-.5 15.7-.2 3.4 1.5 6.6.8 10-1.5 9.4-3 18.7-4.4 28.1 1.8 4.6 3.8 9.1 4.6 14 .5 5.5 0 10.9-.1 16.4 5.7-3.7 10.5-8.4 15.8-12.7 5.7 0 11.4.5 17.1.8 1.8-3.9 3-8 3.3-12.3 2.2 3.5 1.8 7.8 2.1 11.8.4 5 .7 10 1 15 .1 3.2 1 6.5-.3 9.5-1.7-7-4.4-13.6-8.8-19.3-6.2.5-12.9.4-18.4 3.7-4.1 3.1-7.1 7.5-9.7 11.9 5.1 3.1 11 4.5 16.1 7.5 6.7 3.8 13.6 7.7 18.8 13.4 3.1 3.2 2.8 8 4.2 12 1.6 5.9 5.2 11 7 16.9 1.8 4.4 3.8 9.1 7.7 12.1 8.8 7.2 17.5 14.5 26.3 21.8 3.9 3.1 5.9 8.1 10.1 10.9 5.9 4.6 13.9 3.5 20.6 6.1 6.5-2.6 11.9-9.3 10.5-16.5-1.6-6.6-4.2-14.6-11.5-16.7-6.2 3.2-13.4 6.8-15.2 14.1 4.1 3.8 8.6 7.3 13.5 10.2 2.6-1.5 5.8-2.8 7.2-5.7.3-3.1-.3-6.7-2.6-9-3.8-3.1-9.5 2.9-6.7 6.6 1 1.8 3.8 1.7 4.8-.1-1-1.4-2.2-2.6-3.4-3.9 1.4-.3 2.8-.7 4.3-1 1.1 2.1 2.8 4.8 1 7.1-3 4.6-11.1 1.4-11-3.8-.2-3.8 2.7-6.5 5.2-8.8 2.8.3 6.2 0 8.3 2.3 3.4 3.8 4.3 9.4 3.4 14.3-3.4 3.2-8.4 4.3-13 4.6-5.6-2.9-10.5-7.3-14.2-12.3 1.1-5.9 4.4-11.6 9.3-15.1 4.5-3 11.2-4.6 15.6-.7 5.5 4.7 8.6 11.4 11.6 17.8-1.9 5.4-3.8 11.1-7.5 15.6-2.3 2.8-6 3.7-9 5.4-6.3 0-12-2.6-17.6-5.1-15-7.1-28.4-17.3-41.1-27.9-3.2-2.8-6.7-5.4-9.3-8.7-3.1-3.9-7-7-10.7-10.3-3-2.5-4.8-6-7.7-8.6.6-6.5-1.9-12.8-1.5-19.3.3-2.1-1.4-3.7-2.6-5.3-1.9-2.2-4.3-4.2-7.1-4.8-6-1.6-11.8-3.8-17.6-5.9-1.6 5.5-4.3 11-3 16.9 1.1 6 1.1 13.1 5.9 17.5 3.1-.6 6.3-1.1 9.4-.6 2.4 2 .9 5.7.8 8.4-3.5 0-7 .1-10.5-.1-6.1-.6-12-2.6-18.1-3.1-5.9.5-11.5 2.5-17.3 3.4.3-2.6-.8-5.9.7-8.1 5.4-2.2 12.6 1.6 17.4-2.7 3.4-5.6 3.1-12.5 2.8-18.7-.8-29-1.5-58-2.2-87-.3-5.6-.8-11.4.5-17 .5-3 1.9-5.9 1.6-9-.6-3.8 2-7.2 1.7-11.1-.2-8.7-1.7-17.4-2.1-26.1zM30.2 99.4c3.9-1.3 8 1.1 10.4 4.1 4.3 5.4 6 12.7 5.4 19.5-.5 4.5-2.1 9.5-6.2 11.9-3.5 2.1-7.9.6-10.6-2.1-5.1-5.1-7.1-12.7-6.8-19.8.3-5.3 2.3-11.6 7.7-13.6zM63.3 101.4c2.9-1.4 6.7-1 9 1.4 3.4 3.4 4.1 8.6 3.8 13.2-.6 6.8-3.3 13.8-8.7 18.3-2.9 2.5-7.6 3.7-10.9 1.2-4.4-3.3-5.2-9.4-4.8-14.5.8-7.7 4.4-16 11.7-19.6zM310 122.2c2.2-5.3 2.7-11.3 6.1-16 .3 13.3-2.8 26.6-1.1 39.9l-1.4.3c-.4-4.8-1.3-9.8-4.7-13.4-3.7-4.7-9.8-6-14.6-9.4-2.3-1.5-4.8-2.4-7.4-3.2-3.5 2.2-6.9 4.6-9.8 7.7 5.8 7.4 11.9 14.6 19.3 20.5 3.2 2.8 7.8 3.1 10.8 6.2 4.9 4.9 8.2 11.4 9.1 18.3-.4 4.4-3.9 7.5-6.7 10.6-4 4.4-9.5 7.6-15.5 8.2-6.2-.9-12.4-2.5-18.3-4.6-4.2-1.7-9-3.6-11.4-7.8-1.7-5.5-3.7-12.1-.5-17.5 3.1-4.4 9.5-3.5 13.9-1.9 3.8 1.2 5.1 5.5 4.4 9.1-2.3 1.9-5.5 2-8.3 2.6-2-1.9-4-3.8-6-5.8 1.2-1.2 3.5-1.9 3.7-3.7-.9-1.6-2.6.3-3.7.7-2.4 1.4-3.7 4.6-2.1 7.2 3.9 7 11.4 10.6 18.1 14.2 5.4-.8 11.1-.9 16.1-3.4 2.6-1.1 1.9-4.4 1.4-6.6-1.2-4.7-6.4-6.1-9.6-9.2-4.3-3.9-9.1-6.9-13.5-10.6-5.2-4.8-10.3-9.7-15.5-14.6-.2-2.9-1.5-6.3.5-8.8 2.8-3.9 7-6.4 10.8-9.2 5.4-3.6 11.1-7.9 17.8-8.2 6.2 2.4 11 8.5 18.1 8.2zM678.4 113.3c7.3-2.8 14.6-5.5 22.3-6.9 7.5 6.5 16.5 11.4 26.3 13.2 4.9 1 10 .6 14.7 2.3-6.1 7.3-14.3 12.6-21.9 18.4-.3 4.5-.7 9.3-3.6 12.9-2.3 3.3-6.8 3.8-9.3 6.7-3 2.9-4.9 6.6-6.9 10.1-2.7 3.3-6.8 4.9-10.4 7.1 9.5.2 18.9 3.9 25.6 10.7 2.8 3.3 7 4.5 11 6 5.5-2.9 11.2-5.8 16.4-9.3 3.2-2.1 3.4-6.3 4.7-9.5-1.6-1.4-3.1-2.8-4.7-4.1-2.2.8-4.3 1.6-6.5 2.5l4 5.7c1.2-.7 2.4-1.4 3.6-2.2l-4.2-3.5c2.3-.3 3.9 1.5 5.6 2.8-1.7 1.9-3.4 3.7-5.1 5.5-3.2-2.9-7.3-6-6.5-10.9 3.6-1.4 7.5-2.5 11.5-2.4 2.4 1.1 4.1 3.3 5.3 5.6l.2 8.9c.1 2.7-1.9 4.8-3.7 6.7-4.7 4.5-10.6 7.6-16.3 10.6-2.6 1.6-5.6-.1-8.2-.6-8.3-2.1-16.1-5.7-23.5-9.8-8.3 0-16.7.5-25.1.7l-2.7-2.7c7.9-9.7 16.8-18.6 25.4-27.6 2.7-2.6 3.4-6.5 5.5-9.5 3.8-5.5 8.6-10.1 13.4-14.7 2.9-2.5 3.7-6.4 5-9.8l-18.2-10.1c-9.1.8-18.2 2.2-26.9 5.1-.7 2.9-1.2 5.8-1.6 8.8l5.8 3.5c1.7-.6 3.5-1.1 5.1-1.8-.6-2.8-3.7-3.7-5.8-5.2 3.7-1.3 6.9 1.1 8.9 4-2.5 2.9-5.3 5.5-8.5 7.5-8.2-1.8-10.2-11.3-10.2-18.5 1.9-3.6 6.2-4.9 9.7-6.6zM420.6 121.5c4.4-4.9 10.7-8.8 17.4-8.3 7.2 2.3 14.2 5.2 21.3 7.8 1.6-2.9 3.9-6.4 7.6-6.2 5 0 9.9-.2 14.9.2.3.3.8.8 1.1 1-.6 3.7-2.3 7.1-2.8 10.8-.5 5.2 1.6 10.2 2.7 15.2.3 9.3-3.7 18.7-.7 27.8 1 3.8 1 7.7.9 11.5 1.2.6 2.4 1.5 3.8 1.5 3-1.3 5.6-3.4 8.3-5.2-1.2-3-2.4-5.9-3.8-8.8-.9.7-1.9 1.4-2.8 2.2.4 1.9.8 3.8 1 5.7-1.6-2.1-2.6-4.5-3.3-7 1.8-2.3 4.2-3.9 7-4.7 4.2 4.7 6.1 11 5.8 17.3-5.7 4.9-12.2 10.4-20.2 9.8-4.7-.3-9.3-2-13.2-4.7-3.5-2.4-3.6-7-5.3-10.5-1.7 3.6-3.3 7.5-6.4 10-2.5 1.9-5.1 3.7-8 5-5.2.5-10.9.8-15.4-2.3-9.1-5.7-16.4-13.8-23.6-21.6-2.2-2.1-3.1-5.1-3.5-8.1-1.5-9.9 0-21 6.6-28.9 3-3.7 7.4-5.9 10.5-9.5zM610 123c5.7-3.6 11.8-6.4 18.1-8.6 2.9-1.2 5.9.3 8.7 1 5.8 1.8 12.2 3.8 15.6 9.2 1.5 2.6 4.3 5.1 3.8 8.4-.3 7.4-3.8 15-10.1 19.2-4.5 3.3-10 4.8-15.3 6.1-6.4 1.7-12.3 6.6-19.3 4.8 10.8-2.8 20.2-9 29.1-15.4 2.9-2.1 5.1-5.1 6.9-8.1 1.9-2.8 1.1-6.3 1.3-9.5-4.7-4.9-11.2-7.9-17.9-8.8-6.5 2.4-12.7 6.4-16.9 11.9-3.4 4.2-3.3 9.7-3.8 14.7-.2 4-.8 8-.9 12.1.9 8.5 6.7 15 12.5 20.8 3 2.4 6.7 4 10.1 5.7 9.5-2.4 19.3-6 25.9-13.5 3.9-4.1 3.7-10.2 5.5-15.4-.9-1.1-1-3.2-2.7-3.1-2.1-.4-3.3 1.6-4.4 2.9.8.1 2.3.3 3 .4l.7-2.9c1.8 1.6.8 3.7.4 5.7-2.1-.5-5.2-.1-6.1-2.7-.4-4.1 3.3-8.4 7.6-7.5 4.5 3.3 6.9 9.1 6.5 14.6-.7 3.8-2.9 7.1-5.6 9.8-3.1 3-5 7-8.4 9.7-4.3 3.5-9.5 5.9-14.9 7.2-4.1.4-8.2-.4-12.3-.4-6.3-4.5-14-6.7-20.1-11.5-3.9-3.1-8.5-5.4-12-8.9-3.3-8.6-5.1-18.3-2.7-27.4 1.2-4.2 2-9.4 6.1-11.8l11.4-8.6zM206.5 124.5c4.3-5.9 11.5-9 18.5-9.8 4.6.8 8.9 2.6 13.4 3.9 3.7 1.3 8.1 2.1 10.6 5.4 4.8 5.8 7.2 13.1 10.4 19.9 5.2 12 .5 25.7-6.9 35.7-3.4 5-8.8 8-13.8 11.1-4.7 1.5-9.8.7-14.7 1-3.2-.1-6.8 1-9.6-1-7.5-4.7-12.7-12.3-17.7-19.4-2.7-8.5-2-17.6-3.2-26.3 4.3-6.8 7.2-14.6 12.9-20.4zM562.6 118.6c1.8-.8 3.3-2.4 5.3-2.5 5 1.6 9.6 4.2 14 7.1 3.4 2.4 7.1 5.5 7.5 9.9.1 10.1-4.7 19.7-3.5 29.8l-2 2.1c1.5 4.6 3.6 9.1 3.3 14 .2 7.1-.4 14.1-.9 21.1 1.3 3.2 3.5 6 5.3 9 4.5-3.1 9.7-6.1 11.8-11.4-3.2-1.8-5.8-6.1-9.9-5.2-1 1.6-1.6 3.4-2.3 5.2 1.2.9 2.5 1.8 3.8 2.6.5-.9 1.4-2.6 1.8-3.5 1.8 2.4-.3 4.7-2.8 5.1-3.7-1.2-5-5.9-3.5-9.2 1.7-3 5.5-3 8.4-3.6 2.4 2.2 4.8 4.4 7.2 6.5.2 5.8-1.5 11.8-5.6 16.1-3.6 3.6-7.5 7.3-12.5 8.5-2.3.9-4.1-.9-5.8-2.1-4.9-4.1-9.6-8.6-14.1-13.1 2.1-11.5 2.5-23.2 3.3-34.8.6-7-3.1-13.9-1.2-20.9l3.4-16.5-9.7-8.7c-7.4 3.4-14.6 7.8-19.9 14.1-1.8 2.2-4.1 3.9-5.4 6.5-.7 1.6.5 3.2 1 4.6-.6 9.3-.9 18.8 1.9 27.8 1.4 6.3 4.8 12 6.7 18.2-1.5 2.6-4.6 1.2-6.9.8-8.6-2.1-17.3-3.7-25.5-7 .4-1.2.8-2.3 1.3-3.5 1.3 0 2.6 0 3.9.1l3.7-23.3c.5-3.7 1.4-7.5.6-11.2-1.5-7.9-2.9-15.9-5.3-23.6-6.1 3.4-12.6 7.3-16 13.6-4.1 6.2 8 14.1 11.5 7.1.2-3-3-6.8-6.2-5.7-1 .8-1.8 1.8-2.7 2.7 1.4 1.1 2.9 2.2 4.4 3.2.3-1.5.5-3.1.7-4.6l2.3 3.6c-1.5 1-2.9 2.8-4.8 2.1-3.1-.4-3.7-3.9-3.4-6.4-.3-3.3 4.1-3.8 6.5-4.4 5.5-.7 8.9 5.6 8.8 10.4-1.5 3.8-5.8 5.3-8.9 7.4-4.6-1.7-9.8-3.2-13-7.2-2.8-3.7-1.6-8.8.7-12.4 4.7-7.6 12.3-12.6 19.7-17.3 3.8-2.2 8.9-4.6 13-1.7 4.8 3.6 7.6 9.1 10.6 14.3 3.8-2.5 7.2-5.5 10.5-8.5 2.5-2.5 6.3-2.9 9.2-4.8zM6.4 127.4c3.7-2 8.2-.5 11.2 2 5.4 4.5 8.4 11.6 8.1 18.6-.2 4.1-2.2 8.7-6.3 10.2-4 1.4-8.3-.6-11.2-3.3-5-4.8-7.8-12.1-6.9-19 .4-3.4 2.1-6.9 5.2-8.5zM81.3 133.5c3.1-1.3 7.1-.8 9.4 1.8 3.2 3.4 3.7 8.5 2.9 12.9-1.1 5.9-4.4 11.7-9.6 14.9-3.3 2.1-8 2.7-11.1-.1-3.9-3.4-4.4-9.1-3.5-13.9 1.4-6.6 5.4-13.1 11.9-15.7zM43.3 147.4c5.9-2 11.7 1.6 16 5.3 6.9 6.3 12.5 14.4 15.5 23.3.9 3.3 2 7.4-.3 10.4-2.8 3.3-7.1 6-11.6 5.4-5.7-.5-10.8-5.1-16.7-3.6-7.4 1.6-15 4.6-22.7 3.1-3.5-.9-7.7-3.2-7.8-7.3 0-7.2 4-13.7 7.8-19.5 5.1-7 11.3-14.1 19.7-17.1z"/><path fill="#fff" d="M208.4 136c4.4-6.2 9.2-12.2 15.4-16.7 4.5.9 9.3 1.4 13.4 3.6 2.9 1.5 6.2 2.2 9.1 3.9 3.1 2.6 6 6 6.6 10.2 1.5 7.6 3.2 15.5 1.8 23.3-.8 4.8-1.1 9.8-3 14.4-4.1 4.7-9.5 8-14.3 11.8-3.4 3.2-8.3 2.1-12.5 2.4-3.3.5-5-2.7-6.9-4.8-4.7-6.4-8.8-13.5-11.6-20.9.5-9.1 3.2-18 2-27.2zM435.4 126.4c3.3-2.4 7.1-4.8 11.2-5.3 4.3 2.9 8.6 6.4 11.2 11 1.3 5.9 2.3 12 4 17.8-.3 8.9-3.3 17.6-3 26.5-3.6 4.2-9.4 7.2-14.9 5.4-6.6-1.2-11.6-6-15.8-11 .4-4.7-.1-9.5.5-14.3.8-7.4.6-15.2 3.8-22.1l3-8zM275.2 167.1c-.7-1.8-1.3-3.5-1.8-5.3 1.7 1.4 3.1 3.2 4.3 5l-2.8 2.8-3.5-3.3c.5-.6 1-1.3 1.6-1.9.6.7 1.7 2 2.2 2.7z"/></svg>